<svg viewBox="0 0 94.41 19.86" xmlns="http://www.w3.org/2000/svg" data-name="图层 1" id="_图层_1">
  <defs>
    <style>
      .cls-1 {
        fill: #fff;
      }

      .cls-2 {
        fill: #7c5703;
      }
    </style>
  </defs>
  <polygon points="14.87 2.68 0 2.68 14.87 17.55 22.31 17.55 14.87 2.68" class="cls-2"></polygon>
  <polygon points="62.41 2.68 62.41 17.55 20.33 17.55 12.89 2.68 62.41 2.68"></polygon>
  <path d="M23.52,14.13c-.62,0-1.17-.11-1.64-.34-.47-.22-.83-.54-1.09-.95-.26-.41-.39-.89-.39-1.44v-4.77h1.75v4.63c0,.26.06.49.17.69s.28.36.48.47c.2.11.44.17.71.17s.51-.06.72-.17c.21-.11.37-.27.48-.47s.17-.43.17-.69v-4.63h1.75v4.77c0,.55-.13,1.03-.39,1.44-.26.41-.63.72-1.09.95-.47.22-1.01.34-1.64.34Z" class="cls-1"></path>
  <path d="M27.8,14.03v-7.4h1.93l2.07,3.34c.13.22.26.45.39.69.13.24.25.5.38.79.12.29.25.62.38.99h-.16c-.02-.27-.04-.57-.06-.9s-.04-.65-.06-.97c-.02-.31-.02-.58-.02-.79v-3.15h1.8v7.4h-1.93l-1.89-3.06c-.17-.28-.32-.55-.46-.8-.14-.25-.28-.52-.41-.82-.14-.29-.3-.64-.48-1.04h.2c.02.35.04.7.07,1.04s.04.64.05.92c.01.28.02.51.02.7v3.06h-1.8Z" class="cls-1"></path>
  <path d="M38.49,14.03v-7.4h3.03c.56,0,1.04.1,1.44.3.4.2.71.48.93.85s.33.8.33,1.31-.11.94-.33,1.3c-.22.36-.54.63-.95.82-.41.18-.9.28-1.46.28h-1.93v-1.38h1.61c.28,0,.5-.04.69-.11.18-.07.32-.18.42-.33.09-.15.14-.34.14-.57s-.05-.42-.14-.58c-.09-.15-.23-.27-.42-.34-.19-.08-.42-.12-.69-.12h-.9v5.98h-1.75ZM42.55,14.03l-1.8-3.38h1.88l1.85,3.38h-1.92Z" class="cls-1"></path>
  <path d="M48.57,14.13c-.67,0-1.26-.15-1.79-.44-.53-.29-.95-.72-1.26-1.29-.31-.57-.47-1.25-.47-2.06s.16-1.5.47-2.07c.31-.57.73-1,1.26-1.29.53-.29,1.13-.44,1.79-.44s1.26.15,1.79.44c.53.29.95.72,1.26,1.29.31.57.46,1.26.46,2.07s-.15,1.5-.46,2.07c-.31.57-.73,1-1.26,1.29-.53.29-1.13.44-1.79.44ZM48.57,12.59c.36,0,.67-.09.92-.26.26-.17.46-.43.6-.76.14-.34.21-.75.21-1.23s-.07-.9-.21-1.24c-.14-.34-.34-.59-.6-.76-.26-.17-.57-.26-.92-.26s-.67.09-.93.26c-.26.17-.46.43-.6.76-.14.34-.21.75-.21,1.24s.07.9.21,1.23c.14.33.34.59.6.76.26.17.57.26.93.26Z" class="cls-1"></path>
  <path d="M52.13,14.03l3.11-4.43v1.33l-2.85-4.3h2.03l.7,1.11c.15.24.27.45.37.65.1.2.18.39.26.57.08.18.17.36.26.54h-.5c.1-.18.19-.35.27-.54.08-.18.17-.37.27-.57s.22-.42.37-.65l.72-1.11h1.98l-2.78,4.2v-1.26l3.03,4.45h-2.08l-.92-1.42c-.14-.21-.24-.39-.32-.53-.08-.14-.15-.28-.21-.4-.06-.12-.13-.26-.22-.4h.25c-.08.14-.15.28-.21.4-.06.13-.13.26-.22.41-.08.15-.19.32-.33.53l-.96,1.42h-2.03Z" class="cls-1"></path>
  <polygon points="35.58 14.03 37.33 14.03 37.33 7.56 35.58 8.46 35.58 14.03" class="cls-1"></polygon>
  <polygon points="35.58 6.41 35.58 6.63 35.58 8.46 37.33 7.56 37.33 6.63 37.33 4.62 35.58 6.41" class="cls-2"></polygon>
  <g>
    <path d="M69.19.37h.64l.81,2.27c.11.29.2.59.31.89h.02c.11-.3.2-.6.3-.89l.81-2.27h.64v4.25h-.5v-2.35c0-.37.04-.88.07-1.25h-.02l-.34.97-.8,2.21h-.36l-.81-2.21-.34-.97h-.02c.04.37.07.89.07,1.25v2.35h-.48V.37Z"></path>
    <path d="M73.66,3.8c0-.68.59-1.03,1.93-1.18,0-.41-.13-.79-.65-.79-.37,0-.7.17-.94.34l-.2-.37c.28-.19.72-.41,1.24-.41.77,0,1.09.51,1.09,1.29v1.94h-.44l-.05-.38h-.02c-.3.25-.66.45-1.04.45-.53,0-.92-.32-.92-.89ZM75.59,3.85v-.88c-1.06.12-1.42.38-1.42.79,0,.36.24.5.56.5s.56-.14.86-.41Z"></path>
    <path d="M77.11,0h.52v3.12h.02l1.33-1.66h.59l-1.05,1.27,1.19,1.88h-.57l-.92-1.52-.59.69v.83h-.52V0Z"></path>
    <path d="M79.97,3.04c0-1.03.69-1.66,1.41-1.66.81,0,1.26.58,1.26,1.48,0,.12-.01.22-.02.3h-2.12c.04.67.45,1.1,1.04,1.1.31,0,.55-.09.79-.25l.19.35c-.27.18-.61.32-1.03.32-.84,0-1.51-.61-1.51-1.65ZM82.17,2.79c0-.64-.29-.98-.78-.98-.45,0-.84.35-.9.98h1.69Z"></path>
    <path d="M72.26,9.65c-.38.55-.96.59-1.55.59h-.68v1.34h-1.03v-4.09h2.03c.39,0,.75.05,1.07.32.04.04.12.1.19.2.09.13.23.43.23.83,0,.13-.02.49-.24.81ZM71.38,8.46c-.16-.23-.46-.23-.7-.23h-.66v1.24h.62c.18,0,.25,0,.35-.02.36-.06.5-.28.5-.63,0-.2-.06-.3-.11-.37Z"></path>
    <path d="M74.43,9.35s-.17.02-.28.06c-.24.08-.28.23-.28.46v1.7h-.89v-3.03h.86v.31c.08-.06.16-.15.35-.23.24-.1.41-.11.52-.12v.79l-.3.05Z"></path>
    <path d="M75.87,10.25s0,.1.01.18c.07.35.32.57.68.57.05,0,.17,0,.29-.05.3-.1.43-.41.47-.49l.67.35c-.12.18-.19.26-.25.34-.45.49-1.03.53-1.25.53-.09,0-.31,0-.55-.08-.67-.21-.99-.8-.99-1.48,0-.19.01-.75.39-1.18.19-.21.5-.48,1.17-.48.2,0,.81.02,1.18.55.34.47.33,1.1.34,1.24h-2.16ZM76.78,9.15c-.12-.06-.22-.06-.27-.06-.35,0-.52.26-.56.37-.02.05-.05.12-.07.23h1.24c-.01-.1-.03-.41-.33-.54Z"></path>
    <path d="M80.98,11.15c-.4.47-.92.52-1.14.52-.13,0-.4-.02-.71-.17-.57-.28-.79-.82-.79-1.42,0-.14,0-.43.15-.77.34-.79,1.09-.86,1.37-.86.24,0,.77.05,1.18.56.03.05.06.08.12.17l-.66.38s-.05-.11-.1-.17c-.05-.06-.22-.25-.49-.25-.06,0-.19,0-.32.1-.31.23-.32.75-.32.81,0,.26.09.6.29.77.06.05.19.15.38.15.29,0,.45-.2.5-.27.03-.05.05-.08.09-.18l.67.35c-.06.1-.13.2-.21.29Z"></path>
    <path d="M81.68,8.17v-.69h.89v.69h-.89ZM81.68,11.57v-3.03h.89v3.03h-.89Z"></path>
    <path d="M85.71,11.1c-.27.4-.82.56-1.28.56-.16,0-.67-.03-1.11-.3-.18-.11-.3-.23-.36-.28l.57-.51c.05.05.1.1.16.15.2.16.47.27.72.27.04,0,.12,0,.22-.03.13-.03.31-.1.31-.27,0-.21-.27-.23-.6-.28-.63-.1-.92-.25-1.08-.55-.08-.16-.09-.31-.09-.38,0-.08.02-.26.13-.45.14-.25.48-.56,1.15-.56.19,0,.64.03,1.1.29.09.05.17.1.25.16l-.55.51c-.05-.04-.1-.08-.16-.12-.16-.1-.41-.19-.6-.19-.13,0-.24.03-.28.05-.11.05-.14.13-.14.18,0,.06.04.11.08.15.09.06.31.09.41.11l.4.09c.48.1.9.35.9.91,0,.25-.09.43-.15.5Z"></path>
    <path d="M86.39,8.17v-.69h.89v.69h-.89ZM86.39,11.57v-3.03h.89v3.03h-.89Z"></path>
    <path d="M90.59,11.31c-.17.15-.53.35-1.1.35-.16,0-.77-.03-1.19-.44-.18-.17-.43-.54-.43-1.18,0-.17.01-.67.35-1.08.21-.25.63-.56,1.39-.52.35.02.67.1.95.32.38.31.56.79.56,1.28,0,.68-.33,1.08-.53,1.25ZM89.9,9.28c-.08-.06-.2-.12-.44-.12-.04,0-.21.01-.34.09-.16.09-.35.35-.35.8,0,.3.1.52.16.61.07.1.24.3.58.3.49,0,.71-.41.71-.86s-.15-.69-.32-.81Z"></path>
    <path d="M93.52,11.57v-1.71c0-.2,0-.35-.03-.44-.04-.1-.15-.24-.41-.24-.04,0-.19,0-.3.09-.15.12-.17.3-.17.66v1.64h-.89v-3.02h.9v.26s.06-.08.14-.13c.11-.08.35-.21.71-.21.07,0,.32,0,.54.12.37.2.4.54.4.91v2.07h-.89Z"></path>
    <path d="M68.89,17.98l.32-.37c.3.32.73.53,1.17.53.56,0,.89-.28.89-.69,0-.44-.31-.58-.71-.76l-.61-.27c-.39-.17-.86-.47-.86-1.09,0-.66.57-1.12,1.34-1.12.5,0,.95.21,1.25.52l-.28.34c-.26-.24-.57-.39-.97-.39-.48,0-.79.24-.79.62,0,.42.38.57.71.71l.6.26c.49.21.88.5.88,1.14,0,.67-.56,1.21-1.44,1.21-.6,0-1.12-.24-1.48-.63Z"></path>
    <path d="M72.52,14.38c0-.2.14-.34.35-.34s.35.14.35.34c0,.21-.15.35-.35.35s-.35-.14-.35-.35ZM72.6,15.38h.53v3.15h-.53v-3.15Z"></path>
    <path d="M74.19,15.38h.44l.05.46h.01c.28-.3.6-.54.98-.54.49,0,.74.23.87.6.33-.35.66-.6,1.04-.6.64,0,.95.43.95,1.23v2h-.53v-1.93c0-.59-.19-.84-.59-.84-.24,0-.5.16-.79.48v2.29h-.53v-1.93c0-.59-.19-.84-.59-.84-.24,0-.5.16-.79.48v2.29h-.53v-3.15Z"></path>
    <path d="M79.56,15.38h.44l.05.37h.01c.28-.24.64-.45,1-.45.81,0,1.25.63,1.25,1.61,0,1.08-.65,1.7-1.37,1.7-.28,0-.58-.13-.87-.37l.02.55v1.07h-.53v-4.48ZM81.77,16.92c0-.7-.23-1.17-.84-1.17-.26,0-.53.15-.83.43v1.66c.28.24.56.33.76.33.52,0,.91-.47.91-1.25Z"></path>
    <path d="M83.16,17.91v-3.99h.53v4.02c0,.16.06.23.15.23.03,0,.05,0,.11-.01l.08.41c-.08.02-.16.05-.31.05-.39,0-.56-.25-.56-.7Z"></path>
    <path d="M84.57,16.96c0-1.03.69-1.66,1.41-1.66.81,0,1.26.58,1.26,1.48,0,.12-.01.22-.02.3h-2.12c.04.67.45,1.1,1.04,1.1.31,0,.55-.09.79-.25l.19.35c-.27.18-.61.32-1.03.32-.84,0-1.51-.61-1.51-1.65ZM86.77,16.71c0-.64-.29-.98-.78-.98-.45,0-.84.35-.9.98h1.69Z"></path>
    <path d="M87.9,18.21c0-.24.17-.41.38-.41s.38.16.38.41-.17.4-.38.4-.38-.16-.38-.4Z"></path>
  </g>
</svg>